<mxfile host="Electron" agent="Mozilla/5.0 (Windows NT 10.0; Win64; x64) AppleWebKit/537.36 (KHTML, like Gecko) draw.io/28.2.5 Chrome/138.0.7204.251 Electron/37.6.1 Safari/537.36" version="28.2.5">
  <diagram id="page-1" name="Admin Side DFD - 1st Level (editable)">
    <mxGraphModel dx="1544" dy="1018" grid="1" gridSize="10" guides="1" tooltips="1" connect="1" arrows="1" fold="1" page="1" pageScale="1" pageWidth="1300" pageHeight="900" math="0" shadow="0">
      <root>
        <mxCell id="0" />
        <mxCell id="1" parent="0" />
        <mxCell id="title" value="Admin Side DFD - 1st Level" style="text;whiteSpace=wrap;html=1;fontStyle=1;" parent="1" vertex="1">
          <mxGeometry x="420" y="10" width="460" height="30" as="geometry" />
        </mxCell>
        <mxCell id="ext_admin" value="&lt;font style=&quot;font-size: 16px;&quot;&gt;ADMIN&lt;/font&gt;" style="shape=rectangle;whiteSpace=wrap;html=1;strokeWidth=2;" parent="1" vertex="1">
          <mxGeometry x="40" y="130" width="140" height="40" as="geometry" />
        </mxCell>
        <mxCell id="p1" value="1.0&#xa;Login" style="shape=ellipse;whiteSpace=wrap;html=1;" parent="1" vertex="1">
          <mxGeometry x="420" y="120" width="160" height="70" as="geometry" />
        </mxCell>
        <mxCell id="p2" value="2.0&#xa;Manage&#xa;Category" style="shape=ellipse;whiteSpace=wrap;html=1;" parent="1" vertex="1">
          <mxGeometry x="420" y="250" width="160" height="80" as="geometry" />
        </mxCell>
        <mxCell id="p3" value="3.0&#xa;Manage&#xa;Item" style="shape=ellipse;whiteSpace=wrap;html=1;" parent="1" vertex="1">
          <mxGeometry x="420" y="380" width="160" height="80" as="geometry" />
        </mxCell>
        <mxCell id="p4" value="4.0&#xa;Manage&#xa;Order" style="shape=ellipse;whiteSpace=wrap;html=1;" parent="1" vertex="1">
          <mxGeometry x="420" y="510" width="160" height="80" as="geometry" />
        </mxCell>
        <mxCell id="p5" value="5.0&#xa;Manage&#xa;Reports" style="shape=ellipse;whiteSpace=wrap;html=1;" parent="1" vertex="1">
          <mxGeometry x="420" y="640" width="170" height="80" as="geometry" />
        </mxCell>
        <mxCell id="f_admin_to_login" value="&lt;font style=&quot;font-size: 14px;&quot;&gt;Request for Login&lt;/font&gt;" style="endArrow=classic;html=1;strokeWidth=3;startArrow=classic;" parent="1" target="p1" edge="1">
          <mxGeometry as="geometry">
            <mxPoint x="180" y="155" as="sourcePoint" />
          </mxGeometry>
        </mxCell>
        <mxCell id="f_admin_to_cat" value="&lt;font style=&quot;font-size: 14px;&quot;&gt;Add / Edit Category&lt;/font&gt;" style="endArrow=classic;html=1;exitX=0.75;exitY=1;exitDx=0;exitDy=0;strokeWidth=3;" parent="1" source="ext_admin" target="p2" edge="1">
          <mxGeometry as="geometry">
            <Array as="points">
              <mxPoint x="145" y="290" />
            </Array>
            <mxPoint x="-82" y="70" as="offset" />
          </mxGeometry>
        </mxCell>
        <mxCell id="f_admin_to_item" value="&lt;font style=&quot;font-size: 14px;&quot;&gt;Add / Edit Item&lt;/font&gt;" style="endArrow=classic;html=1;exitX=0.577;exitY=0.975;exitDx=0;exitDy=0;exitPerimeter=0;startArrow=classic;strokeWidth=3;" parent="1" source="ext_admin" target="p3" edge="1">
          <mxGeometry as="geometry">
            <Array as="points">
              <mxPoint x="120" y="420" />
            </Array>
            <mxPoint x="-80" y="146" as="offset" />
          </mxGeometry>
        </mxCell>
        <mxCell id="f_admin_to_order" value="&lt;font style=&quot;font-size: 14px;&quot;&gt;Manage Order&lt;/font&gt;" style="endArrow=classic;html=1;strokeWidth=3;startArrow=classic;" parent="1" target="p4" edge="1">
          <mxGeometry as="geometry">
            <mxPoint x="90" y="170" as="sourcePoint" />
            <Array as="points">
              <mxPoint x="90" y="550" />
            </Array>
            <mxPoint x="-55" y="200" as="offset" />
          </mxGeometry>
        </mxCell>
        <mxCell id="f_admin_to_reports" value="&lt;font style=&quot;font-size: 14px;&quot;&gt;View Report&lt;/font&gt;" style="endArrow=classic;html=1;strokeWidth=3;startArrow=classic;" parent="1" target="p5" edge="1">
          <mxGeometry as="geometry">
            <mxPoint x="60" y="172" as="sourcePoint" />
            <Array as="points">
              <mxPoint x="60" y="680" />
            </Array>
            <mxPoint x="-60" y="264" as="offset" />
          </mxGeometry>
        </mxCell>
        <mxCell id="f_login_to_adminMst" value="&lt;font style=&quot;font-size: 14px;&quot;&gt;Check for login&lt;/font&gt;" style="endArrow=classic;html=1;strokeWidth=3;startArrow=classic;" parent="1" source="p1" edge="1">
          <mxGeometry as="geometry">
            <mxPoint x="1050" y="159.296875" as="targetPoint" />
          </mxGeometry>
        </mxCell>
        <mxCell id="f_cat_to_catMst" value="&lt;font style=&quot;font-size: 14px;&quot;&gt;Insert Data&lt;/font&gt;" style="endArrow=classic;html=1;strokeWidth=3;startArrow=classic;" parent="1" source="p2" edge="1">
          <mxGeometry as="geometry">
            <mxPoint x="1040" y="290" as="targetPoint" />
          </mxGeometry>
        </mxCell>
        <mxCell id="f_item_to_itemMst" value="&lt;font style=&quot;font-size: 14px;&quot;&gt;Insert Data&lt;/font&gt;" style="endArrow=classic;html=1;strokeWidth=3;startArrow=classic;" parent="1" source="p3" edge="1">
          <mxGeometry as="geometry">
            <mxPoint x="1040" y="420" as="targetPoint" />
          </mxGeometry>
        </mxCell>
        <mxCell id="f_order_to_orderMst" value="&lt;font style=&quot;font-size: 14px;&quot;&gt;View Order&lt;/font&gt;" style="endArrow=classic;html=1;strokeWidth=3;startArrow=classic;" parent="1" source="p4" edge="1">
          <mxGeometry as="geometry">
            <mxPoint x="1040" y="550" as="targetPoint" />
          </mxGeometry>
        </mxCell>
        <mxCell id="f_reports_to_all" value="&lt;font style=&quot;font-size: 14px;&quot;&gt;View Report&lt;/font&gt;" style="endArrow=classic;html=1;strokeWidth=3;startArrow=classic;" parent="1" source="p5" edge="1">
          <mxGeometry as="geometry">
            <mxPoint x="1040" y="680" as="targetPoint" />
          </mxGeometry>
        </mxCell>
        <mxCell id="HuxYNNQLvYvycB5Qy4db-5" value="&lt;span style=&quot;text-align: left;&quot;&gt;&lt;font style=&quot;font-size: 18px;&quot;&gt;AdminMst&lt;/font&gt;&lt;/span&gt;" style="shape=partialRectangle;whiteSpace=wrap;html=1;top=0;bottom=0;fillColor=none;direction=south;strokeWidth=2;" vertex="1" parent="1">
          <mxGeometry x="1050" y="130" width="150" height="60" as="geometry" />
        </mxCell>
        <mxCell id="HuxYNNQLvYvycB5Qy4db-6" value="&lt;span style=&quot;text-align: left;&quot;&gt;&lt;font style=&quot;font-size: 18px;&quot;&gt;CategoryMst&lt;/font&gt;&lt;/span&gt;" style="shape=partialRectangle;whiteSpace=wrap;html=1;top=0;bottom=0;fillColor=none;direction=south;strokeWidth=2;" vertex="1" parent="1">
          <mxGeometry x="1050" y="260" width="150" height="60" as="geometry" />
        </mxCell>
        <mxCell id="HuxYNNQLvYvycB5Qy4db-7" value="&lt;span style=&quot;text-align: left;&quot;&gt;&lt;font style=&quot;font-size: 18px;&quot;&gt;ItemMst&lt;/font&gt;&lt;/span&gt;" style="shape=partialRectangle;whiteSpace=wrap;html=1;top=0;bottom=0;fillColor=none;direction=south;strokeWidth=2;" vertex="1" parent="1">
          <mxGeometry x="1050" y="390" width="150" height="60" as="geometry" />
        </mxCell>
        <mxCell id="HuxYNNQLvYvycB5Qy4db-8" value="&lt;span style=&quot;text-align: left;&quot;&gt;&lt;font style=&quot;font-size: 18px;&quot;&gt;OrderMst&lt;/font&gt;&lt;/span&gt;" style="shape=partialRectangle;whiteSpace=wrap;html=1;top=0;bottom=0;fillColor=none;direction=south;strokeWidth=2;" vertex="1" parent="1">
          <mxGeometry x="1050" y="520" width="150" height="60" as="geometry" />
        </mxCell>
        <mxCell id="HuxYNNQLvYvycB5Qy4db-10" value="&lt;span style=&quot;text-align: left;&quot;&gt;&lt;font style=&quot;font-size: 15px;&quot;&gt;UserMSt / OrderMSt / PaymentMSt&lt;/font&gt;&lt;/span&gt;" style="shape=partialRectangle;whiteSpace=wrap;html=1;top=0;bottom=0;fillColor=none;direction=south;strokeWidth=2;" vertex="1" parent="1">
          <mxGeometry x="1050" y="650" width="150" height="60" as="geometry" />
        </mxCell>
      </root>
    </mxGraphModel>
  </diagram>
</mxfile>
